<svg xmlns="http://www.w3.org/2000/svg" viewBox="0 0 64 64" role="img" aria-label="FLYFORECAST.RU">
  <defs>
    <linearGradient id="sky" x1="10" x2="54" y1="6" y2="58" gradientUnits="userSpaceOnUse">
      <stop offset="0" stop-color="#0f766e"/>
      <stop offset="0.55" stop-color="#155e75"/>
      <stop offset="1" stop-color="#172554"/>
    </linearGradient>
    <linearGradient id="sun" x1="40" x2="56" y1="8" y2="24" gradientUnits="userSpaceOnUse">
      <stop offset="0" stop-color="#facc15"/>
      <stop offset="1" stop-color="#fb923c"/>
    </linearGradient>
  </defs>
  <rect width="64" height="64" rx="15" fill="url(#sky)"/>
  <circle cx="47" cy="17" r="8" fill="url(#sun)"/>
  <path d="M13 41c0-4 3.2-7.2 7.2-7.2 1.5 0 2.8.4 4 1.2 1.7-4.2 5.8-7.1 10.6-7.1 5.8 0 10.6 4.3 11.3 9.9h2.2c3.4 0 6.2 2.8 6.2 6.2S51.7 50 48.3 50H20c-3.9 0-7-3-7-6.9V41z" fill="#f8fafc" opacity=".96"/>
  <path d="M10 50h44" stroke="#94a3b8" stroke-width="3" stroke-linecap="round" opacity=".65"/>
  <path d="M16.5 28.2 47.8 17c1.7-.6 3.2 1.2 2.2 2.8L37.6 39.4c-.5.8-1.6.9-2.2.2l-5.6-6.1-7.6 4.2c-1.1.6-2.3-.5-1.8-1.7l3.1-7.2-6.9-1.8c-1.4-.4-1.5-2.3-.1-2.8z" fill="#ffffff"/>
  <path d="m29.8 33.5 19-15.2-13.4 21.3-5.6-6.1z" fill="#bae6fd"/>
</svg>
